<svg xmlns="http://www.w3.org/2000/svg" viewBox="0 0 70 60"><path fill="#f7ec2f" d="M3.993 56.999 34.99 3 65.988 56.999z"/><path fill="#1d1d1d" d="m33.673 42.35l-1.845-21.417c-.159-1.696 1.528-2.863 3.162-2.863 1.635 0 3.321 1.167 3.164 2.863l-1.847 21.417h-2.634m1.317 2.757c1.635 0 3.11 1.325 3.11 3.02 0 1.697-1.424 3.02-3.11 3.02s-3.11-1.325-3.11-3.02c0-1.696 1.476-3.02 3.11-3.02"/><path fill="#343435" d="m66.01 58.5c-.007 0-.014 0-.02 0h-61.996c-.534 0-1.026-.285-1.292-.751-.267-.463-.267-1.035 0-1.501l30.998-53.998c.267-.464.76-.75 1.292-.75.534 0 1.026.286 1.292.75l30.89 53.811c.206.256.328.584.328.938 0 .83-.668 1.501-1.492 1.501m-59.43-3h56.825l-28.412-49.5-28.413 49.5"/></svg>