<svg xmlns="http://www.w3.org/2000/svg" viewBox="0 0 30.00049 18.00049"><g fill="#f5f5f5"><path d="m14.961 18c-6.085 0-11.767-3.333-14.828-8.7l-.171-.3.171-.3c3.062-5.366 8.744-8.7 14.828-8.7 6.085 0 11.767 3.334 14.829 8.7l.172.3-.172.3c-3.062 5.367-8.743 8.7-14.829 8.7m-13.627-9c2.889 4.82 8.08 7.801 13.627 7.801 5.55 0 10.738-2.98 13.628-7.801-2.89-4.82-8.08-7.8-13.628-7.8-5.548 0-10.737 2.98-13.627 7.8"/><path d="m20.435 9c0 3.062-2.449 5.542-5.473 5.542-3.02 0-5.474-2.48-5.474-5.542 0-3.061 2.451-5.542 5.474-5.542 3.02 0 5.473 2.481 5.473 5.542"/></g></svg>