<svg xmlns="http://www.w3.org/2000/svg" viewBox="0 0 50 32"><path fill="#003976" d="m0 0h50v32h-50z"/><path fill="#fff" d="m0 10.664h10.561l-10.561-6.775v-3.889h6.04l14.774 9.414v-9.414h8.316v9.414l14.776-9.414h6.094v3.889l-10.61 6.775h10.61v10.671h-10.61l10.61 6.775v3.89h-6.094l-14.776-9.415v9.415h-8.316v-9.415l-14.774 9.415h-6.04v-3.89l10.561-6.775h-10.561z"/><g fill="#e03a3e"><path d="M46.07 0 29.38 10.671 33.375 10.671 50 0z"/><path d="m50 32l-16.64-10.665h4.01l12.63 8.123z"/><path d="M16.721 10.671 0 0 0 2.549 12.691 10.671z"/><path d="M16.687 21.335 0 32 3.993 32 20.682 21.335z"/><path d="m0 12.877h22.586v-12.877h4.889v12.877h22.525v6.253h-22.525v12.87h-4.889v-12.87h-22.586z"/></g></svg>