<svg xmlns="http://www.w3.org/2000/svg" viewBox="0 0 70 70"><circle fill="#ebf3e0" cx="34.5" cy="35.36" r="31"/><path fill="#343435" d="m34.5 67.859c-17.92 0-32.5-14.58-32.5-32.5 0-17.92 14.58-32.5 32.5-32.5 17.92 0 32.5 14.58 32.5 32.5 0 17.92-14.58 32.5-32.5 32.5m0-62c-16.266 0-29.5 13.234-29.5 29.5 0 16.266 13.234 29.5 29.5 29.5 16.266 0 29.5-13.234 29.5-29.5 0-16.266-13.234-29.5-29.5-29.5"/><g fill="#6e9b40"><path d="m40.969 11.137c-.377-1.562-.377-1.509-1.293-1.778-3.5.216-3.824 2.908-3.824 3.716 0 .808 3.125 15.08 3.125 15.08s3.877 4.686 5.385 6.678c1.509 1.993 1.347 2.586 1.347 2.586s-7.05-8.24-7.701-9.209c-.646-.97-2.692-1.562-2.692-1.562s-2.478-.646-4.255-1.131c-1.777-.484-2.531-.215-2.531-.215s-3.663 1.454-4.255 1.669c-.593.215-1.508.431-1.024 2.478 1.238 4.147 6.301 1.4 6.301 1.4l4.416 1.346 2.478 3.77c0 0-.701 3.716-.754 4.578-.647.485-8.24.646-9.856.593-.431-1.238-2.477-2.908-2.477-3.77 0-.862.485-3.878.485-5.063 0-1.184-1.463-2.391-2.585-2.531-1.723-.215-2.908.701-2.908 1.293 0 .593-.215 3.124-.539 5.332-.323 2.209-.054 2.801-.054 2.801l8.94 19.441.055 3.124c0 0 2.046 1.185 7.378 1.185 5.332 0 8.24-1.077 8.24-1.077s-.054-1.023.054-2.423c.108-1.4 3.878-13.41 4.417-15.13.537-1.723.16-3.554.16-4.146 0-.592-5.654-27.466-6.03-29.03"/><path d="m48.24 14.206c.054-.539.054-1.454-1.562-1.993-2.424-.646-3.5 1.508-3.5 1.508l-.324 2.1 2.854 13.68c0 0 2.478-14.757 2.531-15.295"/><path d="m49.748 21.15c-1.777-.053-2.209 1.131-2.209 1.131l-1.508 9.05.646 3.285c0 0 4.093-10.394 4.47-11.31.378-.915.378-2.1-1.399-2.154"/></g></svg>