<svg xmlns="http://www.w3.org/2000/svg" width="87.87" viewBox="0 0 87.87402 70.86621"><path fill="#f5f5f5" d="m68.26 34.743c7.604-4.797 13.295-10.09 13.295-17.938 0-7.844-9.357-14.399-21.603-15.879-4.865-.564-9.96-.778-14.13-.861 0-.012.002-.05.002-.064h-3.768c0 .015.003.053.003.064-4.172.083-9.266.296-14.13.861-12.243 1.48-21.603 7.837-21.603 15.68 0 7.847 5.691 13.34 13.295 18.14-2.32 3.14-17.02 23.13-19.617 25.895l11.05 5.629c1.016-1.299 17.893-27.923 20.676-31.798-4.641-2.491-13.916-7.926-13.916-16.965 0-4.154 2.661-11.133 20.19-11.317 1.043 18.968.999 18.97.999 28.788 0 1.938-1.56 34.511-1.746 35.892h13.557c-.186-1.381-1.947-33.762-1.947-35.892 0-9.941-.044-9.944.998-28.788 17.532.185 20.2 7.164 20.2 11.317 0 9.04-9.272 14.474-13.914 16.965 2.781 3.875 19.657 30.499 20.676 31.798l11.05-5.629c-2.598-2.77-17.295-22.755-19.615-25.895"/></svg>